<svg width="184" height="180" viewBox="0 0 184 180" fill="none" xmlns="http://www.w3.org/2000/svg">
<g clip-path="url(#clip0_1_855)">
<path d="M116.811 40.4814H67.2307C66.1009 40.4828 65.0177 40.9332 64.2188 41.7339C63.4199 42.5345 62.9705 43.6201 62.9691 44.7524V155.186L62.4009 155.359L50.2381 159.092C49.6617 159.268 49.0391 159.208 48.507 158.925C47.9748 158.641 47.5767 158.158 47.3999 157.58L11.2212 39.146C11.0452 38.5683 11.1052 37.9442 11.3881 37.4108C11.671 36.8775 12.1536 36.4785 12.7299 36.3015L31.4727 30.55L85.8087 13.8818L104.551 8.13018C104.837 8.0422 105.136 8.01146 105.433 8.03971C105.731 8.06796 106.019 8.15465 106.283 8.29482C106.546 8.43499 106.78 8.62588 106.97 8.85658C107.16 9.08727 107.302 9.35324 107.39 9.63926L116.637 39.9119L116.811 40.4814Z" fill="#F2F2F2"/>
<path d="M127.63 39.9122L116.484 3.42666C116.299 2.81874 115.996 2.2534 115.592 1.76295C115.189 1.27249 114.693 0.866527 114.132 0.568259C113.572 0.26999 112.959 0.0852572 112.328 0.024624C111.696 -0.0360093 111.059 0.0286449 110.453 0.214885L84.1014 8.29842L29.7682 24.9695L3.41701 33.0559C2.19288 33.4326 1.16789 34.2807 0.567035 35.414C-0.0338181 36.5473 -0.161448 37.8732 0.212166 39.1007L38.3057 163.793C38.6092 164.784 39.2216 165.651 40.053 166.268C40.8844 166.884 41.8911 167.218 42.9254 167.219C43.4041 167.219 43.88 167.147 44.3373 167.005L62.4011 161.464L62.9693 161.288V160.693L62.4011 160.866L44.1698 166.461C43.0892 166.791 41.9222 166.678 40.9246 166.147C39.927 165.616 39.1803 164.71 38.8484 163.628L0.757774 38.9327C0.5933 38.3966 0.535976 37.8331 0.589084 37.2747C0.642191 36.7163 0.804682 36.1739 1.06726 35.6785C1.32984 35.1831 1.68735 34.7445 2.11931 34.3878C2.55127 34.0311 3.0492 33.7633 3.58459 33.5997L29.9358 25.5133L84.2691 8.84511L110.62 0.758729C111.026 0.634528 111.449 0.571201 111.873 0.570804C112.784 0.572855 113.671 0.867255 114.403 1.41088C115.135 1.95451 115.674 2.7188 115.942 3.59181L127.036 39.9122L127.212 40.4817H127.803L127.63 39.9122Z" fill="#3F3D56"/>
<path d="M34.8549 36.3946C34.3073 36.3943 33.7743 36.218 33.334 35.8917C32.8937 35.5655 32.5693 35.1064 32.4084 34.5818L28.7489 22.6027C28.6506 22.2809 28.6165 21.9428 28.6485 21.6078C28.6805 21.2729 28.7781 20.9475 28.9357 20.6503C29.0932 20.3531 29.3076 20.0899 29.5667 19.8757C29.8257 19.6616 30.1243 19.5007 30.4454 19.4022L80.4315 4.06548C81.0799 3.86718 81.7804 3.93481 82.3791 4.25354C82.9778 4.57227 83.4259 5.11605 83.6251 5.76553L87.2845 17.7448C87.4823 18.3947 87.4147 19.0967 87.0967 19.6967C86.7787 20.2967 86.2362 20.7458 85.5882 20.9454L35.602 36.2822C35.3599 36.3566 35.1081 36.3945 34.8549 36.3946Z" fill="#5185E4"/>
<path d="M54.0245 12.8C57.1627 12.8 59.7067 10.2505 59.7067 7.1054C59.7067 3.96034 57.1627 1.41077 54.0245 1.41077C50.8863 1.41077 48.3423 3.96034 48.3423 7.1054C48.3423 10.2505 50.8863 12.8 54.0245 12.8Z" fill="#5185E4"/>
<path d="M54.0245 10.7114C56.0117 10.7114 57.6227 9.09696 57.6227 7.10541C57.6227 5.11386 56.0117 3.49939 54.0245 3.49939C52.0373 3.49939 50.4264 5.11386 50.4264 7.10541C50.4264 9.09696 52.0373 10.7114 54.0245 10.7114Z" fill="white"/>
<path d="M171.215 165.763H75.1859C74.5457 165.763 73.9318 165.507 73.4791 165.054C73.0264 164.6 72.7717 163.985 72.771 163.343V48.0268C72.7717 47.3851 73.0264 46.7699 73.4791 46.3162C73.9318 45.8625 74.5457 45.6073 75.1859 45.6066H171.215C171.855 45.6073 172.469 45.8625 172.922 46.3163C173.375 46.77 173.629 47.3851 173.63 48.0268V163.343C173.629 163.985 173.375 164.6 172.922 165.054C172.469 165.507 171.855 165.763 171.215 165.763Z" fill="#E6E6E6"/>
<path d="M127.036 39.9119H67.2308C65.9503 39.9137 64.7229 40.4243 63.8175 41.3317C62.9121 42.239 62.4027 43.4692 62.4009 44.7524V160.866L62.9691 160.692V44.7524C62.9705 43.6201 63.4199 42.5345 64.2188 41.7339C65.0177 40.9332 66.1009 40.4828 67.2308 40.4814H127.212L127.036 39.9119ZM179.17 39.9119H67.2308C65.9503 39.9137 64.7229 40.4243 63.8175 41.3317C62.9121 42.239 62.4027 43.4692 62.4009 44.7524V175.16C62.4027 176.443 62.9121 177.673 63.8175 178.58C64.7229 179.488 65.9503 179.998 67.2308 180H179.17C180.451 179.998 181.678 179.488 182.583 178.58C183.489 177.673 183.998 176.443 184 175.16V44.7524C183.998 43.4692 183.489 42.239 182.583 41.3317C181.678 40.4243 180.451 39.9137 179.17 39.9119ZM183.432 175.16C183.43 176.292 182.981 177.377 182.182 178.178C181.383 178.979 180.3 179.429 179.17 179.431H67.2308C66.1009 179.429 65.0177 178.979 64.2188 178.178C63.4199 177.377 62.9705 176.292 62.9691 175.16V44.7524C62.9705 43.6201 63.4199 42.5345 64.2188 41.7339C65.0177 40.9332 66.1009 40.4828 67.2308 40.4814H179.17C180.3 40.4828 181.383 40.9332 182.182 41.7339C182.981 42.5345 183.43 43.6201 183.432 44.7524V175.16Z" fill="#3F3D56"/>
<path d="M149.339 52.4401H97.0624C96.3844 52.4394 95.7345 52.1691 95.2551 51.6887C94.7758 51.2083 94.5061 50.5569 94.5054 49.8775V37.3493C94.5061 36.6699 94.7758 36.0186 95.2551 35.5382C95.7345 35.0577 96.3844 34.7875 97.0624 34.7867H149.339C150.017 34.7875 150.666 35.0577 151.146 35.5382C151.625 36.0186 151.895 36.6699 151.896 37.3493V49.8775C151.895 50.5569 151.625 51.2083 151.146 51.6887C150.666 52.1691 150.017 52.4394 149.339 52.4401Z" fill="#5185E4"/>
<path d="M123.2 35.641C126.339 35.641 128.883 33.0914 128.883 29.9463C128.883 26.8013 126.339 24.2517 123.2 24.2517C120.062 24.2517 117.518 26.8013 117.518 29.9463C117.518 33.0914 120.062 35.641 123.2 35.641Z" fill="#5185E4"/>
<path d="M123.2 33.4149C125.112 33.4149 126.661 31.862 126.661 29.9463C126.661 28.0307 125.112 26.4778 123.2 26.4778C121.289 26.4778 119.74 28.0307 119.74 29.9463C119.74 31.862 121.289 33.4149 123.2 33.4149Z" fill="white"/>
<path d="M83 62H142.5" stroke="#3F3D56" stroke-opacity="0.5" stroke-width="0.5"/>
<path d="M83 76H111" stroke="#3F3D56" stroke-opacity="0.5" stroke-width="0.5"/>
<path d="M83 156H93" stroke="#3F3D56" stroke-opacity="0.5" stroke-width="0.5"/>
<path d="M83 90H97" stroke="#3F3D56" stroke-opacity="0.5" stroke-width="0.5"/>
<path d="M25.1616 50.4937L81.8328 32.3657" stroke="#3F3D56" stroke-opacity="0.5" stroke-width="0.5"/>
<path d="M29.4272 63.8281L56.096 55.2973" stroke="#3F3D56" stroke-opacity="0.5" stroke-width="0.5"/>
<path d="M33.6924 77.1625L47.0268 72.8971" stroke="#3F3D56" stroke-opacity="0.5" stroke-width="0.5"/>
<path d="M83 145H97" stroke="#3F3D56" stroke-opacity="0.5" stroke-width="0.5"/>
</g>
<defs>
<clipPath id="clip0_1_855">
<rect width="184" height="180" fill="white"/>
</clipPath>
</defs>
</svg>
