<svg width="278" height="251" viewBox="0 0 278 251" fill="none" xmlns="http://www.w3.org/2000/svg">
<path d="M266.794 99.4957C266.794 143.039 238.88 180.047 200.003 193.536C184.354 198.935 167.612 200.355 151.28 197.67C149.73 197.416 148.191 197.125 146.663 196.796C144.593 196.355 142.547 195.849 140.526 195.276C98.7873 183.505 68.1951 145.08 68.1951 99.4957C68.1951 44.5455 112.653 0 167.494 0C222.336 0 266.794 44.5454 266.794 99.4957Z" fill="#E6E6E6"/>
<path d="M105.3 130.205C105.125 130.298 104.994 130.458 104.937 130.648C104.879 130.838 104.899 131.043 104.992 131.218L142.326 201.284C142.42 201.459 142.579 201.59 142.768 201.648C142.958 201.705 143.163 201.685 143.338 201.592L196.113 173.36C196.288 173.266 196.418 173.107 196.476 172.916C196.534 172.726 196.514 172.521 196.421 172.346L159.087 102.28C158.993 102.105 158.834 101.974 158.644 101.917C158.455 101.859 158.25 101.879 158.075 101.972L105.3 130.205Z" fill="#3F3D56"/>
<path d="M110.205 132.252L144.37 196.368L191.207 171.312L157.043 107.196L110.205 132.252ZM107.237 133.84L107.244 133.836L107.237 133.84L107.237 133.84Z" fill="white"/>
<path d="M122.015 139.301C121.287 139.69 121.132 140.827 121.669 141.834C122.206 142.841 123.234 143.344 123.962 142.955L158.266 124.604C158.993 124.214 159.148 123.078 158.611 122.071C158.075 121.064 157.046 120.561 156.319 120.95L122.015 139.301Z" fill="#5185E4"/>
<path d="M126.241 147.233C125.514 147.622 125.359 148.758 125.895 149.766C126.432 150.773 127.461 151.276 128.188 150.887L162.492 132.536C163.22 132.146 163.375 131.01 162.838 130.003C162.301 128.996 161.273 128.493 160.545 128.882L126.241 147.233Z" fill="#5185E4"/>
<path d="M130.468 155.165C129.74 155.554 129.585 156.69 130.122 157.697C130.659 158.705 131.687 159.208 132.415 158.819L166.719 140.468C167.446 140.078 167.601 138.942 167.064 137.935C166.528 136.928 165.499 136.425 164.772 136.814L130.468 155.165Z" fill="#5185E4"/>
<path d="M134.694 163.097C133.967 163.486 133.812 164.622 134.348 165.629C134.885 166.637 135.914 167.14 136.641 166.75L170.945 148.4C171.673 148.01 171.828 146.874 171.291 145.867C170.754 144.86 169.726 144.356 168.998 144.746L134.694 163.097Z" fill="#5185E4"/>
<path d="M138.921 171.029C138.193 171.418 138.038 172.554 138.575 173.561C139.112 174.568 140.14 175.072 140.868 174.682L175.171 156.331C175.899 155.942 176.054 154.806 175.517 153.799C174.981 152.792 173.952 152.288 173.225 152.678L138.921 171.029Z" fill="#5185E4"/>
<path d="M145.582 99.9337L176.665 101.836L185.37 75.8242L158.107 70.0523L145.582 99.9337Z" fill="#2F2E41"/>
<path d="M167.999 93.3563C174.865 93.3563 180.431 87.7795 180.431 80.9002C180.431 74.0208 174.865 68.444 167.999 68.444C161.134 68.444 155.568 74.0208 155.568 80.9002C155.568 87.7795 161.134 93.3563 167.999 93.3563Z" fill="#FFB8B8"/>
<path d="M199.922 192.566L200.003 193.536C184.354 198.935 167.612 200.355 151.28 197.67L146.663 196.796L151.057 187.034L153.937 180.634L152.9 158.496L152.79 156.205L152.654 153.282L154.53 153.271L167.868 153.19L180.579 153.11L182.517 153.099C194.671 168.078 204.7 180.252 199.922 192.566Z" fill="#2F2E41"/>
<path d="M182.334 152.915L152.654 156.219L151.555 135.659C148.072 126.758 150.371 118.813 157.6 111.684L159.07 105.855C159.456 104.325 160.253 102.93 161.374 101.823C162.496 100.715 163.899 99.9367 165.431 99.5724C170.29 96.7806 175.793 95.4499 181.968 95.6407C184.434 96.6056 186.525 98.3395 187.932 100.586C189.339 102.833 189.987 105.474 189.781 108.119C188.504 124.277 186.212 139.402 182.334 152.915Z" fill="#5185E4"/>
<path d="M158.595 66.1833C158.595 66.1833 152.167 68.5337 152.002 77.0788C151.993 78.5168 152.184 79.9489 152.571 81.3337C152.988 82.9042 153.322 86.3118 150.519 90.8541C148.688 93.8025 147.032 96.8568 145.561 100.001L152.798 100.701L153.995 88.6789C154.575 82.8503 156.009 77.1391 158.25 71.729L158.297 71.616C158.297 71.616 161.617 77.3987 167.928 77.2205L165.611 75.0258C165.611 75.0258 173.515 78.0083 177.813 78.6072C178.304 78.6756 178.766 78.8768 179.151 79.1892C179.536 79.5015 179.828 79.9132 179.997 80.3798C180.166 80.8464 180.204 81.3502 180.108 81.837C180.012 82.3239 179.785 82.7752 179.452 83.1425C179.427 83.1702 179.401 83.1979 179.375 83.2258C176.747 86.0121 171.515 92.4882 174.81 97.3675C178.105 102.247 175.439 103.678 175.439 103.678L180.321 100.828L182.537 99.4095L182.588 101.216L194.27 99.5304C194.27 99.5304 197.413 98.9896 190.435 91.5021C190.435 91.5021 188.566 88.5708 189.275 85.977C189.862 84.0044 189.972 81.9202 189.596 79.8965C187.843 71.472 181.427 54.8056 158.595 66.1833Z" fill="#2F2E41"/>
<path d="M0.272097 118.416C0.178245 118.441 0.0981878 118.502 0.0494934 118.586C0.000799055 118.671 -0.0125567 118.771 0.012363 118.865L10.012 156.47C10.0371 156.564 10.0984 156.644 10.1824 156.693C10.2665 156.742 10.3665 156.755 10.4604 156.73L38.7856 149.169C38.8795 149.143 38.9595 149.082 39.0082 148.998C39.0569 148.914 39.0703 148.813 39.0454 148.719L29.0458 111.114C29.0207 111.02 28.9594 110.94 28.8753 110.891C28.7912 110.842 28.6913 110.829 28.5974 110.854L0.272097 118.416Z" fill="#F2F2F2"/>
<path d="M7.23234 124.626C6.8418 124.73 6.64121 125.255 6.78495 125.796C6.92868 126.336 7.36327 126.692 7.75381 126.587L26.1652 121.672C26.5558 121.568 26.7564 121.043 26.6126 120.503C26.4689 119.962 26.0343 119.607 25.6438 119.711L7.23234 124.626Z" fill="white"/>
<path d="M8.3644 128.883C7.97385 128.988 7.77326 129.512 7.917 130.053C8.06073 130.593 8.49532 130.949 8.88586 130.844L27.2973 125.929C27.6878 125.825 27.8884 125.3 27.7447 124.76C27.6009 124.219 27.1664 123.864 26.7758 123.968L8.3644 128.883Z" fill="white"/>
<path d="M9.49641 133.141C9.10587 133.245 8.90528 133.77 9.04901 134.31C9.19274 134.851 9.62733 135.206 10.0179 135.102L28.4293 130.187C28.8199 130.082 29.0204 129.557 28.8767 129.017C28.733 128.476 28.2984 128.121 27.9078 128.225L9.49641 133.141Z" fill="white"/>
<path d="M10.6284 137.398C10.2379 137.502 10.0373 138.027 10.181 138.567C10.3248 139.108 10.7594 139.463 11.1499 139.359L29.5613 134.444C29.9519 134.339 30.1525 133.815 30.0087 133.274C29.865 132.734 29.4304 132.378 29.0399 132.483L10.6284 137.398Z" fill="white"/>
<path d="M11.7605 141.655C11.3699 141.759 11.1693 142.284 11.3131 142.825C11.4568 143.365 11.8914 143.72 12.2819 143.616L30.6934 138.701C31.0839 138.597 31.2845 138.072 31.1408 137.531C30.997 136.991 30.5625 136.636 30.1719 136.74L11.7605 141.655Z" fill="white"/>
<path d="M12.8925 145.912C12.502 146.016 12.3014 146.541 12.4451 147.082C12.5888 147.622 13.0234 147.978 13.414 147.873L31.8254 142.958C32.2159 142.854 32.4165 142.329 32.2728 141.789C32.1291 141.248 31.6945 140.893 31.3039 140.997L12.8925 145.912Z" fill="white"/>
<path d="M1.31111 91.2781C1.22546 91.3241 1.16149 91.4022 1.13325 91.4953C1.105 91.5885 1.11479 91.689 1.16046 91.7749L19.4533 126.106C19.4991 126.191 19.5771 126.255 19.67 126.284C19.763 126.312 19.8633 126.302 19.9491 126.256L45.8078 112.423C45.8935 112.377 45.9574 112.299 45.9857 112.206C46.0139 112.113 46.0041 112.012 45.9585 111.926L27.6656 77.5959C27.6198 77.51 27.5418 77.4459 27.4489 77.4176C27.3559 77.3893 27.2556 77.3991 27.1698 77.4449L1.31111 91.2781Z" fill="#E6E6E6"/>
<path d="M3.71476 92.2813L20.4546 123.697L43.4042 111.42L26.6644 80.0043L3.71476 92.2813ZM2.26054 93.0592L2.26376 93.0576L2.26018 93.0593L2.26054 93.0592Z" fill="white"/>
<path d="M9.50119 95.7351C9.14466 95.9259 9.06875 96.4826 9.33169 96.9761C9.59464 97.4696 10.0986 97.7162 10.4551 97.5254L27.2633 88.5338C27.6198 88.3431 27.6957 87.7863 27.4328 87.2929C27.1698 86.7994 26.6659 86.5528 26.3093 86.7435L9.50119 95.7351Z" fill="#5185E4"/>
<path d="M11.5721 99.6216C11.2156 99.8124 11.1396 100.369 11.4026 100.863C11.6655 101.356 12.1695 101.603 12.526 101.412L29.3342 92.4203C29.6907 92.2296 29.7666 91.6728 29.5037 91.1793C29.2407 90.6858 28.7368 90.4393 28.3802 90.63L11.5721 99.6216Z" fill="#5185E4"/>
<path d="M13.643 103.508C13.2864 103.699 13.2105 104.256 13.4735 104.749C13.7364 105.243 14.2404 105.489 14.5969 105.298L31.4051 96.3068C31.7616 96.1161 31.8375 95.5593 31.5746 95.0658C31.3116 94.5724 30.8077 94.3258 30.4512 94.5165L13.643 103.508Z" fill="#5185E4"/>
<path d="M15.7139 107.395C15.3573 107.585 15.2814 108.142 15.5444 108.636C15.8073 109.129 16.3113 109.376 16.6678 109.185L33.476 100.193C33.8325 100.003 33.9084 99.4458 33.6455 98.9523C33.3825 98.4588 32.8785 98.2122 32.522 98.403L15.7139 107.395Z" fill="#5185E4"/>
<path d="M17.7847 111.281C17.4282 111.472 17.3523 112.029 17.6152 112.522C17.8782 113.016 18.3822 113.262 18.7387 113.071L35.5468 104.08C35.9034 103.889 35.9793 103.332 35.7163 102.839C35.4534 102.345 34.9494 102.099 34.5929 102.289L17.7847 111.281Z" fill="#5185E4"/>
<path d="M19.8556 115.168C19.4991 115.358 19.4232 115.915 19.6861 116.409C19.9491 116.902 20.453 117.149 20.8096 116.958L37.6177 107.966C37.9743 107.776 38.0502 107.219 37.7872 106.725C37.5243 106.232 37.0203 105.985 36.6638 106.176L19.8556 115.168Z" fill="#5185E4"/>
<path d="M252.584 179.01C252.5 178.96 252.4 178.946 252.306 178.97C252.212 178.995 252.131 179.055 252.082 179.139L232.322 212.643C232.272 212.727 232.258 212.827 232.283 212.921C232.307 213.016 232.367 213.097 232.451 213.146L257.687 228.089C257.771 228.138 257.871 228.153 257.965 228.128C258.059 228.104 258.14 228.043 258.189 227.96L277.949 194.455C277.998 194.371 278.013 194.271 277.988 194.177C277.964 194.083 277.904 194.002 277.82 193.952L252.584 179.01Z" fill="#E6E6E6"/>
<path d="M252.978 181.589L234.896 212.248L257.293 225.51L275.375 194.85L252.978 181.589ZM251.559 180.748L251.562 180.75L251.558 180.748L251.559 180.748Z" fill="white"/>
<path d="M253.041 188.337C252.693 188.131 252.179 188.355 251.895 188.837C251.611 189.319 251.663 189.878 252.011 190.084L268.414 199.797C268.762 200.003 269.277 199.779 269.561 199.297C269.845 198.815 269.793 198.256 269.445 198.05L253.041 188.337Z" fill="#5185E4"/>
<path d="M250.804 192.13C250.456 191.924 249.942 192.148 249.658 192.63C249.374 193.112 249.426 193.671 249.774 193.877L266.178 203.59C266.525 203.796 267.04 203.571 267.324 203.09C267.608 202.608 267.556 202.049 267.208 201.843L250.804 192.13Z" fill="#5185E4"/>
<path d="M248.567 195.923C248.219 195.717 247.705 195.941 247.421 196.423C247.137 196.904 247.189 197.464 247.537 197.67L263.941 207.383C264.288 207.589 264.803 207.364 265.087 206.883C265.371 206.401 265.319 205.842 264.971 205.636L248.567 195.923Z" fill="#5185E4"/>
<path d="M246.33 199.716C245.982 199.51 245.468 199.734 245.184 200.216C244.9 200.697 244.952 201.257 245.3 201.463L261.704 211.176C262.051 211.382 262.566 211.157 262.85 210.676C263.134 210.194 263.082 209.635 262.734 209.429L246.33 199.716Z" fill="#5185E4"/>
<path d="M244.093 203.509C243.745 203.303 243.231 203.527 242.947 204.009C242.663 204.49 242.715 205.05 243.063 205.256L259.467 214.969C259.814 215.175 260.329 214.95 260.613 214.469C260.897 213.987 260.845 213.427 260.497 213.221L244.093 203.509Z" fill="#5185E4"/>
<path d="M241.856 207.302C241.508 207.096 240.994 207.32 240.71 207.802C240.426 208.283 240.478 208.843 240.826 209.049L257.23 218.762C257.577 218.968 258.092 218.743 258.376 218.262C258.66 217.78 258.608 217.22 258.26 217.014L241.856 207.302Z" fill="#5185E4"/>
<path d="M161.448 118.036L161.067 120.401L157.051 145.205L154.53 153.271L153.644 156.109L152.9 158.496L143.86 187.426L141.38 193.265C140.019 193.769 138.85 194.687 138.035 195.89C137.221 197.093 136.801 198.521 136.837 199.975C136.872 201.428 137.359 202.834 138.231 203.996C139.103 205.158 140.316 206.018 141.699 206.456C143.083 206.894 144.568 206.887 145.948 206.437C147.328 205.988 148.533 205.117 149.394 203.947C150.256 202.778 150.731 201.367 150.754 199.914C150.776 198.46 150.345 197.036 149.52 195.84L167.212 154.6L167.868 153.19L169.876 148.877L173.668 120.206L173.907 118.404L161.448 118.036Z" fill="#FFB8B8"/>
<path d="M176.105 120.974C170.347 118.9 164.822 118.68 159.616 120.974L161.316 106.216C161.253 104.373 161.915 102.58 163.159 101.221C164.403 99.8616 166.129 99.046 167.967 98.9491C169.827 98.851 171.65 99.4974 173.035 100.746C174.42 101.995 175.253 103.744 175.351 105.608L175.352 105.632L176.105 120.974Z" fill="#5185E4"/>
</svg>
