<svg width="304" height="260" viewBox="0 0 304 260" fill="none" xmlns="http://www.w3.org/2000/svg">
<g clip-path="url(#clip0_1_19)">
<path d="M247.584 125.485C247.584 129.139 247.433 132.755 247.129 136.335C246.891 139.129 246.565 141.898 246.153 144.642C245.714 147.547 245.177 150.417 244.541 153.252V153.256C244.125 155.122 243.668 156.972 243.171 158.808C241.727 164.144 239.932 169.375 237.797 174.467C237.333 175.575 236.853 176.675 236.359 177.768C234.488 181.906 232.394 185.936 230.086 189.839C223.611 200.802 215.529 210.702 206.117 219.201C205.098 220.119 204.066 221.022 203.019 221.91C180.796 240.728 152.748 251.016 123.792 250.971C55.4227 250.971 0 194.79 0 125.486C0 56.1809 55.4227 -2.76823e-05 123.792 -2.76823e-05C151.751 -0.044716 178.895 9.5486 200.766 27.2048C201.791 28.0283 202.803 28.8703 203.802 29.7309C208.679 33.9235 213.23 38.4901 217.416 43.3905H217.419C236.915 66.1709 247.628 95.3279 247.584 125.485Z" fill="#F2F2F2"/>
<path d="M36.5432 147.162C24.7506 140.047 15.85 126.75 17.0055 112.889C27.7869 123.349 41.8706 129.606 56.765 130.553C62.5104 130.897 68.9361 130.674 73.1654 134.631C75.797 137.093 77.022 140.8 77.2229 144.424C77.4238 148.049 76.7075 151.654 75.995 155.212L76.2402 156.083C62.517 156.135 48.3359 154.276 36.5432 147.162Z" fill="#E6E6E6"/>
<path d="M17.2931 112.874C22.0181 123.345 29.8777 132.041 39.7556 137.726C41.8791 138.931 44.1367 139.965 46.5358 140.446C48.8778 140.895 51.2959 140.701 53.5389 139.883C55.6453 139.163 57.7177 138.179 59.9602 137.991C62.3238 137.792 64.512 138.716 66.2313 140.335C68.3348 142.316 69.6107 144.945 70.7703 147.56C72.0578 150.464 73.3498 153.5 75.8183 155.588C76.1174 155.841 75.7127 156.296 75.414 156.044C71.1192 152.411 70.4182 146.328 66.9851 142.05C65.3832 140.053 63.1781 138.534 60.5585 138.574C58.2677 138.609 56.1298 139.622 54.0032 140.37C51.7702 141.155 49.5333 141.524 47.1759 141.179C44.7644 140.825 42.4621 139.877 40.3175 138.733C35.4735 136.101 31.0678 132.713 27.262 128.693C22.8933 124.13 19.3269 118.843 16.7169 113.061C16.5555 112.703 17.1327 112.518 17.2931 112.874Z" fill="white"/>
<path d="M36.4687 136.085C35.3027 137.635 33.631 138.715 31.7522 139.132C29.8733 139.548 27.9095 139.274 26.2117 138.358C25.8687 138.172 26.1385 137.623 26.4819 137.809C28.0614 138.665 29.8907 138.92 31.6395 138.529C33.3883 138.138 34.9415 137.125 36.0188 135.675C36.2532 135.36 36.7018 135.772 36.4687 136.085Z" fill="white"/>
<path d="M52.5183 140.391C52.0276 136.437 50.0847 132.815 47.0769 130.249C46.7787 129.995 47.1834 129.539 47.4812 129.793C50.6062 132.469 52.6205 136.242 53.1223 140.358C53.1698 140.75 52.5656 140.781 52.5183 140.391Z" fill="white"/>
<path d="M23.6434 123.842C24.2178 123.338 24.6596 122.696 24.9291 121.976C25.1986 121.255 25.2874 120.478 25.1874 119.715C25.135 119.323 25.7393 119.293 25.7914 119.682C25.898 120.526 25.7989 121.384 25.5029 122.181C25.2069 122.978 24.7229 123.689 24.0933 124.252C24.0383 124.31 23.9636 124.345 23.8842 124.349C23.8049 124.354 23.7269 124.327 23.6662 124.275C23.6069 124.221 23.5712 124.145 23.5669 124.064C23.5627 123.983 23.5901 123.903 23.6434 123.842Z" fill="white"/>
<path d="M55.1774 86.0344C55.217 86.278 55.2566 86.5215 55.3008 86.7673C55.8499 90.0388 56.6603 93.2595 57.724 96.3979C57.8025 96.6419 57.8856 96.8879 57.9708 97.1291C60.613 104.662 64.6119 111.633 69.7644 117.687C71.8169 120.093 74.0471 122.339 76.4356 124.403C79.7344 127.253 83.5348 130.077 85.6498 133.757C85.8747 134.139 86.0761 134.534 86.2528 134.94L77.27 155.712C77.2262 155.749 77.187 155.788 77.1431 155.825L76.8218 156.671C76.6913 156.574 76.558 156.469 76.4275 156.372C76.3515 156.315 76.2776 156.254 76.2017 156.198C76.1517 156.159 76.1017 156.12 76.0544 156.087C76.0377 156.074 76.0211 156.061 76.0091 156.05C75.9618 156.018 75.9212 155.983 75.8786 155.953C75.1319 155.372 74.3879 154.785 73.6467 154.192C73.642 154.19 73.642 154.19 73.6393 154.184C68.0029 149.65 62.6902 144.601 58.3026 138.894C58.1706 138.722 58.0339 138.548 57.906 138.367C55.9424 135.784 54.1903 133.042 52.6673 130.169C51.8384 128.593 51.0887 126.976 50.421 125.323C48.7041 121.05 47.661 116.529 47.33 111.927C46.6714 102.752 48.9146 93.4665 54.7281 86.5579C54.877 86.3812 55.0239 86.209 55.1774 86.0344Z" fill="#E6E6E6"/>
<path d="M55.4173 86.1967C52.9708 97.4408 54.0816 109.181 58.5919 119.748C59.5718 122.006 60.7597 124.21 62.3901 126.058C63.9929 127.846 66.039 129.167 68.3157 129.883C70.4253 130.594 72.6643 131.073 74.5668 132.291C76.572 133.575 77.7702 135.648 78.1812 137.99C78.6842 140.856 78.1415 143.734 77.5143 146.529C76.8179 149.633 76.046 152.846 76.7769 156.019C76.8655 156.404 76.2717 156.521 76.1833 156.137C74.9116 150.615 77.9651 145.33 77.765 139.819C77.6716 137.247 76.8132 134.689 74.6978 133.122C72.8479 131.752 70.5394 131.256 68.3973 130.555C66.148 129.819 64.1429 128.748 62.4658 127.034C60.7503 125.28 59.4749 123.118 58.4424 120.895C56.1381 115.837 54.6326 110.444 53.9813 104.911C53.2033 98.6019 53.4959 92.2039 54.8462 85.9943C54.93 85.61 55.5005 85.8149 55.4173 86.1967Z" fill="white"/>
<path d="M56.942 116.432C55.0902 116.959 53.1141 116.801 51.3666 115.986C49.6191 115.172 48.214 113.755 47.4022 111.987C47.2392 111.629 47.7806 111.356 47.9439 111.714C48.6968 113.361 50.0057 114.682 51.6345 115.436C53.2633 116.191 55.1047 116.331 56.8262 115.83C57.2005 115.722 57.3141 116.324 56.942 116.432Z" fill="white"/>
<path d="M67.1993 129.665C69.156 126.209 69.7556 122.131 68.8785 118.247C68.7913 117.862 69.385 117.745 69.4721 118.129C70.3775 122.174 69.745 126.415 67.7009 130.008C67.5059 130.35 67.0053 130.006 67.1993 129.665Z" fill="white"/>
<path d="M53.9731 98.8299C54.7315 98.7775 55.4652 98.5351 56.1083 98.1243C56.7514 97.7135 57.2838 97.1473 57.6576 96.4764C57.8483 96.1317 58.3487 96.4765 58.1593 96.8189C57.7428 97.5582 57.1541 98.1828 56.4446 98.6383C55.735 99.0937 54.9263 99.3661 54.0889 99.4317C54.0105 99.4445 53.9302 99.4267 53.8643 99.3817C53.7984 99.3367 53.7519 99.268 53.7342 99.1895C53.7193 99.1097 53.736 99.0272 53.7807 98.9599C53.8254 98.8925 53.8946 98.8458 53.9731 98.8299Z" fill="white"/>
<path d="M85.7518 29.0839L100.903 208.879L70.6001 211.188V31.3714C74.2111 28.9494 79.3944 28.5704 85.7518 29.0839Z" fill="#CCCCCC"/>
<path d="M160.543 29.0839L145.391 208.879L175.694 211.188V31.3714C172.083 28.9494 166.9 28.5704 160.543 29.0839Z" fill="#CCCCCC"/>
<path d="M171.157 218.619H74.8151C73.2702 218.618 71.7892 217.995 70.6968 216.887C69.6044 215.78 68.99 214.279 68.9882 212.713V34.0101C68.99 32.4441 69.6045 30.9428 70.6968 29.8355C71.7892 28.7282 73.2702 28.1053 74.8151 28.1035H171.157C172.702 28.1053 174.183 28.7282 175.275 29.8355C176.368 30.9428 176.982 32.4441 176.984 34.0101V212.713C176.982 214.279 176.368 215.78 175.275 216.887C174.183 217.995 172.702 218.618 171.157 218.619ZM74.8151 30.0642C73.783 30.0654 72.7936 30.4815 72.0639 31.2212C71.3341 31.961 70.9236 32.9639 70.9225 34.0101V212.713C70.9236 213.759 71.3341 214.762 72.0639 215.502C72.7936 216.241 73.783 216.657 74.8151 216.659H171.157C172.189 216.657 173.179 216.241 173.908 215.502C174.638 214.762 175.048 213.759 175.05 212.713V34.0101C175.048 32.964 174.638 31.961 173.908 31.2213C173.178 30.4815 172.189 30.0654 171.157 30.0643L74.8151 30.0642Z" fill="#CCCCCC"/>
<path d="M176.017 57.841H69.9554V59.8017H176.017V57.841Z" fill="#CCCCCC"/>
<path d="M176.017 90.5195H69.9554V92.4802H176.017V90.5195Z" fill="#CCCCCC"/>
<path d="M104.373 29.0839H102.439V118.296H104.373V29.0839Z" fill="#CCCCCC"/>
<path d="M143.533 29.0839H141.599V118.296H143.533V29.0839Z" fill="#CCCCCC"/>
<path d="M188.106 224.011H61.0901C58.7816 224.011 56.5677 223.082 54.9353 221.427C53.303 219.772 52.3859 217.528 52.3859 215.188C52.3859 212.848 53.303 210.604 54.9353 208.949C56.5677 207.295 58.7816 206.365 61.0901 206.365H188.106C190.414 206.365 192.628 207.295 194.261 208.949C195.893 210.604 196.81 212.848 196.81 215.188C196.81 217.528 195.893 219.772 194.261 221.427C192.628 223.082 190.414 224.011 188.106 224.011Z" fill="#CCCCCC"/>
<path d="M176.017 113.721H70.6001V120.257H176.017V113.721Z" fill="#CCCCCC"/>
<path d="M104.674 134.521L104.54 134.456C97.3535 130.937 87.9429 130.94 74.0259 134.467L73.8773 134.505L73.8327 134.356C72.3605 129.463 70.6927 123.921 73.8258 121.194C73.8697 113.193 80.7937 106.695 89.2984 106.695C97.8013 106.695 104.724 113.189 104.771 121.189C109.432 124.801 107.21 130.139 104.749 134.392L104.674 134.521Z" fill="#2F2E41"/>
<path d="M148.843 117.388C148.714 118.036 148.446 118.648 148.059 119.18C147.672 119.713 147.174 120.152 146.601 120.468C146.028 120.785 145.393 120.969 144.742 121.01C144.091 121.051 143.438 120.946 142.831 120.704L117.435 146.574L115.17 138.541L140.392 114.517C140.862 113.51 141.679 112.713 142.69 112.277C143.7 111.84 144.834 111.794 145.875 112.148C146.917 112.502 147.794 113.231 148.341 114.196C148.888 115.162 149.066 116.298 148.843 117.388Z" fill="#FFB6B6"/>
<path d="M86.0767 142.293C86.0767 142.293 83.7726 147.586 89.4579 150.85C95.1432 154.114 115.013 149.604 118.238 148.975C121.462 148.345 133.504 130.077 133.504 130.077L131.801 121.119L115.83 135.172L86.0767 142.293Z" fill="#5185E4"/>
<path d="M81.8832 171.562L82.2056 177.771C82.2056 177.771 81.2541 183.271 82.0367 184.458C82.8133 185.639 104.007 185.788 104.007 185.788C104.007 185.788 105.407 178.136 106.613 171.438L81.8832 171.562Z" fill="#FFB6B6"/>
<path d="M142.817 253.658L147.247 252.75L145.979 234.609L139.44 235.948L142.817 253.658Z" fill="#FFB6B6"/>
<path d="M149.163 230.05L153.282 228.172L147.939 210.815L141.86 213.586L149.163 230.05Z" fill="#FFB6B6"/>
<path d="M152.751 220.27L144.995 224.721L125.868 193.565C112.441 202.735 99.3106 207.126 86.0741 209.469C81.5989 210.277 77.0362 209.868 76.177 205.251C76.1369 205.035 76.1049 204.818 76.081 204.599C75.5525 199.556 81.7413 193.092 82.528 186.921L99.4658 185.891L101.554 188.605L121.142 176.398C125.082 173.943 130.263 175.271 132.715 179.363C132.844 179.58 132.964 179.801 133.075 180.028L152.751 220.27Z" fill="#2F2E41"/>
<path d="M148.004 241.229L139.13 242.065L123.039 208.706C107.083 211.488 92.0298 212.379 79.0095 209.014C74.6011 207.89 71.9064 203.276 72.9907 198.708C73.0414 198.494 73.1 198.283 73.1665 198.074C74.7248 193.255 78.8038 189.845 82.0176 184.544L105.492 184.905L102.87 194.076L125.674 191.084C130.26 190.483 134.448 193.848 135.028 198.6C135.059 198.851 135.079 199.103 135.088 199.356L148.004 241.229Z" fill="#2F2E41"/>
<path d="M91.0491 129.779C96.3134 129.779 100.581 125.453 100.581 120.116C100.581 114.78 96.3134 110.454 91.0491 110.454C85.7848 110.454 81.5172 114.78 81.5172 120.116C81.5172 125.453 85.7848 129.779 91.0491 129.779Z" fill="#FFB6B6"/>
<path d="M85.461 133.267L94.2009 134.309C94.5695 134.353 94.9153 134.512 95.1903 134.765C95.4652 135.018 95.6556 135.351 95.7348 135.719L97.1247 142.166L105.789 152.509C105.789 152.509 108.9 158.422 107.734 165.124C106.567 171.826 106.054 176.806 106.054 176.806C106.054 176.806 82.8122 185.64 82.0344 184.457C81.2566 183.274 81.0042 177.902 81.0042 177.902L77.8929 142.815C77.8929 142.815 81.3931 136.902 83.3377 136.902C84.5927 136.859 84.4317 133.996 85.461 133.267Z" fill="#5185E4"/>
<path d="M106.291 178.963C107.516 178.963 108.51 177.755 108.51 176.264C108.51 174.773 107.516 173.564 106.291 173.564C105.065 173.564 104.071 174.773 104.071 176.264C104.071 177.755 105.065 178.963 106.291 178.963Z" fill="#5185E4"/>
<path d="M140.618 248.987L147.373 245.555L148.646 248.566L157.188 250.316C157.61 250.403 157.993 250.623 158.283 250.946C158.572 251.269 158.752 251.678 158.796 252.112C158.84 252.546 158.746 252.983 158.528 253.359C158.31 253.735 157.979 254.031 157.583 254.202L149.33 257.788L146.648 255.429L147.352 258.648L144.24 260L140.618 248.987Z" fill="#2F2E41"/>
<path d="M147.23 228.605L153.924 225.054L155.25 228.042L163.82 229.639C164.244 229.718 164.631 229.932 164.926 230.25C165.221 230.568 165.408 230.973 165.459 231.406C165.511 231.839 165.425 232.278 165.213 232.658C165.002 233.038 164.676 233.339 164.283 233.518L156.094 237.251L153.371 234.939L154.131 238.145L151.043 239.552L147.23 228.605Z" fill="#2F2E41"/>
<path d="M85.6032 117.086C83.0849 117.09 80.6271 116.304 78.5671 114.835L78.4983 114.787V114.702C78.5011 112.232 79.47 109.865 81.1924 108.119C82.9148 106.373 85.2501 105.391 87.686 105.388H91.5545C93.9904 105.391 96.3257 106.373 98.0481 108.119C99.7706 109.865 100.739 112.232 100.742 114.702C100.74 115.267 100.52 115.809 100.129 116.212C99.7379 116.615 99.2073 116.847 98.6499 116.859L85.8206 117.084C85.7482 117.085 85.6754 117.086 85.6032 117.086Z" fill="#2F2E41"/>
<path d="M101.387 112.913C102.62 112.191 102.827 110.212 101.847 108.493C100.868 106.773 99.0743 105.965 97.8408 106.687C96.6073 107.409 96.4012 109.388 97.3804 111.107C98.3596 112.826 100.153 113.635 101.387 112.913Z" fill="#2F2E41"/>
<path d="M82.095 110.995C83.4799 109.591 83.7861 107.625 82.7789 106.604C81.7717 105.584 79.8326 105.894 78.4478 107.298C77.0629 108.702 76.7568 110.667 77.7639 111.688C78.7711 112.709 80.7102 112.399 82.095 110.995Z" fill="#2F2E41"/>
<path d="M166.455 199.339H156.94C156.726 199.339 156.514 199.386 156.319 199.477C156.124 199.568 155.951 199.702 155.813 199.868C155.462 199.802 155.1 199.822 154.759 199.926C154.417 200.029 154.104 200.214 153.846 200.463C153.588 200.713 153.392 201.022 153.275 201.363C153.157 201.704 153.121 202.069 153.169 202.428C153.218 202.786 153.349 203.128 153.553 203.424C153.757 203.721 154.028 203.965 154.343 204.135C154.657 204.305 155.007 204.397 155.364 204.404C155.721 204.41 156.074 204.331 156.395 204.172L157.184 206.772C157.277 207.08 157.466 207.349 157.721 207.541C157.977 207.732 158.287 207.835 158.605 207.835H164.79C165.108 207.835 165.418 207.732 165.674 207.541C165.929 207.349 166.118 207.08 166.211 206.772L167.876 201.289C167.944 201.064 167.959 200.825 167.92 200.593C167.881 200.36 167.789 200.14 167.65 199.951C167.512 199.761 167.332 199.607 167.124 199.501C166.917 199.394 166.687 199.339 166.455 199.339ZM155.411 203.751C154.984 203.751 154.574 203.578 154.271 203.272C153.969 202.966 153.799 202.55 153.799 202.117C153.799 201.683 153.969 201.268 154.271 200.961C154.574 200.655 154.984 200.483 155.411 200.483C155.441 200.483 155.468 200.49 155.497 200.492C155.433 200.755 155.441 201.03 155.52 201.289L156.2 203.532C155.961 203.674 155.689 203.749 155.411 203.751Z" fill="#314765"/>
<path d="M123.97 192.245C123.32 192.306 122.665 192.222 122.051 191.999C121.437 191.775 120.879 191.418 120.416 190.952C119.952 190.486 119.596 189.923 119.37 189.302C119.145 188.682 119.057 188.019 119.112 187.359L87.3776 170.121L94.3186 165.616L124.258 183.216C125.345 183.383 126.333 183.948 127.035 184.804C127.738 185.66 128.106 186.748 128.071 187.861C128.035 188.974 127.598 190.035 126.842 190.843C126.087 191.651 125.065 192.15 123.97 192.245Z" fill="#FFB6B6"/>
<path d="M82.4257 138.441C82.4257 138.441 76.7627 137.723 75.3092 144.18C73.8558 150.637 83.8186 168.639 85.3387 171.589C86.8588 174.539 107.577 180.991 107.577 180.991L115.555 176.767L97.6919 165.291L82.4257 138.441Z" fill="#5185E4"/>
<path d="M122.341 111.761H124.276C125.216 111.761 126.118 112.139 126.783 112.813C127.448 113.488 127.822 114.402 127.822 115.355H118.795C118.795 114.402 119.169 113.488 119.834 112.813C120.499 112.139 121.401 111.761 122.341 111.761Z" fill="#CCCCCC"/>
<path d="M61.0068 44.693C71.59 44.693 80.1693 35.9962 80.1693 25.2682C80.1693 14.5403 71.59 5.84351 61.0068 5.84351C50.4236 5.84351 41.8442 14.5403 41.8442 25.2682C41.8442 35.9962 50.4236 44.693 61.0068 44.693Z" fill="#D4BC65"/>
<path d="M119.678 24.256C114.607 18.8632 108.717 13.9436 101.744 11.3439C99.8021 10.6166 97.7883 10.1036 95.7377 9.81376C95.7212 9.81148 95.7056 9.81486 95.6892 9.81351C95.6558 9.8048 95.622 9.79807 95.5879 9.79335C92.7198 9.42299 89.8088 9.60114 87.0055 10.3186C85.6347 10.6673 84.2974 11.1395 83.0095 11.7297C81.7171 12.3688 80.4648 13.0882 79.2599 13.8838C76.7094 15.4314 73.9012 16.4933 70.974 17.0172C69.5047 17.2853 68.0165 17.4334 66.5237 17.4599C65.2285 17.4863 64.0071 17.5319 62.7799 18.0062C61.4691 18.5059 60.2916 19.3092 59.3414 20.3521C58.3912 21.395 57.6947 22.6486 57.3073 24.0128C57.2775 24.1343 57.2865 24.2623 57.333 24.3783C57.3796 24.4942 57.4613 24.5922 57.5663 24.658C57.8983 24.899 58.2219 25.1725 58.5707 25.3872C58.8809 25.5311 59.2123 25.6227 59.5517 25.6584C60.1062 25.777 60.6614 25.8922 61.2173 26.0038C63.2653 26.4152 65.3218 26.7793 67.3868 27.0961C71.5652 27.7373 75.7662 28.189 79.9898 28.4511C88.4508 28.9707 96.9409 28.712 105.356 27.6783C110.085 27.0977 114.782 26.2741 119.429 25.2109C119.523 25.183 119.609 25.1309 119.677 25.0598C119.746 24.9886 119.795 24.9007 119.82 24.8046C119.845 24.7085 119.845 24.6075 119.82 24.5114C119.795 24.4153 119.746 24.3273 119.678 24.256Z" fill="#E6E6E6"/>
<path d="M61.9162 37.2435C59.974 36.5163 57.9602 36.0033 55.9096 35.7134C55.8931 35.7111 55.8775 35.7145 55.8611 35.7131C55.8277 35.7044 55.7939 35.6977 55.7597 35.693C52.8917 35.3226 49.9806 35.5008 47.1774 36.2182C45.8066 36.5669 44.4693 37.0392 43.1814 37.6293C41.889 38.2684 40.6367 38.9878 39.4318 39.7834C36.8813 41.331 34.0731 42.3929 31.1459 42.9168C29.6766 43.1849 28.1884 43.333 26.6956 43.3595C25.4004 43.3859 24.179 43.4315 22.9518 43.9058C21.641 44.4055 20.4635 45.2088 19.5133 46.2517C18.5631 47.2946 17.8666 48.5482 17.4792 49.9124C17.4494 50.0339 17.4584 50.1619 17.5049 50.2779C17.5515 50.3938 17.6332 50.4918 17.7382 50.5576C18.0702 50.7986 18.3938 51.0721 18.7426 51.2868C19.0528 51.4307 19.3842 51.5223 19.7236 51.558C20.2781 51.6766 20.8333 51.7918 21.3892 51.9034C23.4372 52.3147 25.4937 52.6789 27.5587 52.9957C31.7371 53.6369 35.9381 54.0886 40.1617 54.3507C48.6227 54.8703 57.1128 54.6116 65.5278 53.5779C70.2571 52.9973 74.9542 52.1737 79.6012 51.1105C79.6953 51.0826 79.7806 51.0305 79.849 50.9594C79.9174 50.8882 79.9665 50.8003 79.9915 50.7042C80.0166 50.6081 80.0167 50.5071 79.9918 50.411C79.967 50.3149 79.9181 50.2269 79.8499 50.1556C74.7785 44.7628 68.8887 39.8432 61.9162 37.2435Z" fill="#E6E6E6"/>
<path d="M200.106 182.052L185.369 162.428L173.742 169.092L198.381 198.752L200.106 182.052Z" fill="#314765"/>
<path d="M234.051 150.151C234.378 158.375 235.635 166.534 237.797 174.467C237.332 175.575 236.853 176.675 236.359 177.768C234.488 181.906 232.394 185.936 230.085 189.839C223.611 200.802 215.529 210.702 206.117 219.201C205.098 220.119 204.066 221.022 203.019 221.91C197.052 213.571 193.831 204.368 192.558 194.898C192.397 193.695 192.264 192.48 192.165 191.271V191.264C191.92 188.326 191.841 185.375 191.929 182.428C191.932 182.193 191.939 181.954 191.949 181.715C192.061 178.565 192.342 175.409 192.764 172.281V172.278C192.812 171.918 192.861 171.559 192.916 171.2C193.07 170.121 193.244 169.043 193.435 167.971C194.542 161.789 196.087 155.696 198.058 149.74V149.736C198.112 149.563 198.167 149.393 198.228 149.223C198.441 148.576 198.657 147.936 198.88 147.295C198.893 147.245 198.911 147.196 198.931 147.148C199.218 146.312 199.511 145.482 199.811 144.658C199.892 144.429 199.976 144.201 200.063 143.972C200.401 143.054 200.746 142.142 201.098 141.243C201.207 140.956 201.32 140.668 201.433 140.384C201.52 140.165 201.604 139.946 201.694 139.73V139.727C202.207 138.443 202.726 137.183 203.251 135.949C204.724 132.479 206.239 129.214 207.716 126.204L207.719 126.201C213.847 113.741 219.418 105.65 219.418 105.65L240.337 112.512C237.842 116.999 235.911 123.616 234.853 131.423C234.039 137.628 233.77 143.895 234.051 150.148L234.051 150.151Z" fill="#314765"/>
<path d="M199.283 148.155C199.16 147.864 199.021 147.58 198.88 147.295C198.144 145.852 197.197 144.53 196.072 143.374C195.904 143.201 195.73 143.027 195.549 142.864C193.608 141.051 191.246 139.763 188.684 139.12C186.121 138.477 183.44 138.499 180.888 139.184L180.875 139.191L180.778 139.217L180.801 139.328C180.897 139.846 181.038 140.354 181.22 140.848C181.268 140.982 181.323 141.109 181.378 141.237C181.4 141.295 181.429 141.348 181.455 141.407C181.455 141.407 181.452 141.41 181.458 141.41C181.458 141.413 181.462 141.416 181.462 141.42C181.523 141.541 181.581 141.665 181.645 141.782C181.513 141.655 181.388 141.524 181.265 141.39C181.146 141.266 181.036 141.135 180.926 141.005C180.551 140.56 180.211 140.086 179.911 139.586L179.859 139.498L179.769 139.534C178.553 139.961 177.392 140.538 176.313 141.25L176.197 141.328C175.374 141.876 174.445 142.243 173.473 142.404C172.5 142.565 171.505 142.517 170.552 142.263C169.05 141.87 167.484 141.798 165.952 142.052C164.421 142.306 162.959 142.879 161.658 143.737C160.796 144.306 160.017 144.995 159.343 145.782C159.285 145.851 159.227 145.923 159.169 145.991C159.047 146.142 158.931 146.295 158.818 146.452C157.606 148.094 156.862 150.042 156.668 152.083L156.661 152.158L156.723 152.2C157.813 152.958 159.047 153.479 160.346 153.73C159.53 153.845 158.704 153.866 157.883 153.792H157.88C157.508 153.761 157.137 153.708 156.771 153.635L156.703 153.622H156.7L156.616 153.605L156.629 153.762C156.725 155.759 157.345 157.694 158.425 159.367L158.457 159.412C158.469 159.429 158.48 159.447 158.489 159.465C158.947 160.174 159.327 160.931 159.624 161.723C160.378 163.691 160.544 165.84 160.101 167.902C159.6 170.108 159.767 172.416 160.579 174.525C161.391 176.634 162.81 178.446 164.653 179.725C166.272 180.854 168.158 181.525 170.117 181.67C170.385 181.693 170.656 181.706 170.926 181.706C172.477 181.711 174.011 181.387 175.43 180.755L175.482 180.735L175.494 180.676C175.767 179.783 176.151 178.929 176.636 178.134C176.477 178.761 176.397 179.405 176.397 180.052V180.268L176.581 180.16C176.739 180.065 176.9 179.964 177.045 179.869C177.916 179.293 178.705 178.598 179.389 177.804C179.656 177.49 179.927 177.186 180.211 176.882L180.214 176.879C180.765 176.284 181.349 175.703 181.955 175.147C183.244 173.973 184.624 172.906 186.081 171.954C187.537 171.007 189.06 170.168 190.636 169.445H190.64C190.817 169.36 190.997 169.278 191.175 169.2C191.96 168.853 192.716 168.442 193.435 167.971C193.46 167.955 193.483 167.942 193.506 167.925C196.622 165.857 198.913 162.734 199.971 159.114C201.029 155.493 200.785 151.61 199.283 148.155Z" fill="#5185E4"/>
<path opacity="0.15" d="M160.632 172.542C160.544 172.939 160.478 173.341 160.433 173.746C159.832 171.823 159.745 169.774 160.18 167.806C160.248 167.505 160.298 167.2 160.337 166.894C160.933 168.716 161.035 170.667 160.632 172.542Z" fill="black"/>
<path opacity="0.15" d="M160.876 158.367C159.921 158.501 158.953 158.506 157.997 158.381C157.746 157.902 157.53 157.406 157.35 156.896C158.414 157.624 159.614 158.125 160.876 158.367Z" fill="black"/>
<path opacity="0.15" d="M157.92 153.687C157.568 154.6 157.333 155.557 157.223 156.531C156.929 155.603 156.756 154.64 156.707 153.666L156.699 153.509L156.851 153.539C157.205 153.606 157.562 153.656 157.92 153.687Z" fill="black"/>
<path opacity="0.15" d="M161.741 143.639C163.041 142.781 164.502 142.207 166.033 141.953C167.563 141.698 169.129 141.77 170.631 142.164C171.584 142.419 172.58 142.468 173.553 142.307C174.526 142.147 175.455 141.78 176.278 141.231L176.395 141.153C177.473 140.439 178.633 139.862 179.849 139.433L179.942 139.401L179.992 139.486C180.473 140.292 181.056 141.03 181.726 141.683C181.319 140.915 181.034 140.087 180.882 139.229L180.86 139.116L180.97 139.087C183.363 138.444 185.873 138.385 188.293 138.913C190.714 139.441 192.977 140.542 194.898 142.125C196.819 143.709 198.343 145.73 199.347 148.025C200.35 150.319 200.804 152.822 200.672 155.328C200.164 153.285 199.262 151.364 198.016 149.677C196.771 147.99 195.208 146.57 193.417 145.5C191.627 144.43 189.644 143.73 187.585 143.442C185.526 143.155 183.431 143.284 181.421 143.823L181.311 143.852L181.333 143.965C181.486 144.823 181.771 145.651 182.177 146.419C181.508 145.766 180.925 145.028 180.444 144.222L180.393 144.137L180.301 144.169C179.084 144.598 177.924 145.175 176.847 145.889L176.73 145.967C175.906 146.516 174.978 146.883 174.004 147.043C173.031 147.204 172.036 147.155 171.082 146.9C168.587 146.243 165.944 146.485 163.604 147.583C161.264 148.681 159.373 150.568 158.252 152.921C157.753 152.678 157.269 152.404 156.803 152.101L156.74 152.06L156.748 151.985C156.908 150.303 157.44 148.679 158.305 147.235C159.169 145.79 160.344 144.561 161.741 143.639Z" fill="black"/>
<path d="M281.588 60.1415L281.282 59.9357L281.059 60.2298C279.338 62.4269 277.968 64.885 277.001 67.5138C277.134 64.4854 277.657 61.4874 278.555 58.5959L278.651 58.2919L278.374 58.1318C274.767 56.0614 270.924 54.446 266.93 53.3215L266.495 53.2039C263.433 52.3525 260.584 50.8566 258.131 48.8138C255.679 46.771 253.679 44.2271 252.262 41.3481C248.968 34.7407 243.765 29.3086 237.347 25.7767C230.928 22.2448 223.6 20.7811 216.339 21.5809H216.336C216.259 21.5874 216.178 21.5972 216.101 21.607C215.969 21.6201 215.84 21.6364 215.711 21.6528C215.446 21.6887 215.189 21.7247 214.931 21.7639C214.711 21.7966 214.489 21.8325 214.27 21.8717C214.154 21.8881 214.041 21.9077 213.928 21.9305C213.815 21.9502 213.699 21.9698 213.586 21.9926H213.583C211.419 22.4077 209.297 23.0258 207.245 23.839H207.242V23.8422L206.723 24.0481C206.188 24.2703 205.657 24.5056 205.13 24.754C205.011 24.8095 204.895 24.8683 204.776 24.9239C204.744 24.9402 204.708 24.9566 204.676 24.9762C204.337 25.1396 204.002 25.3095 203.67 25.4892C203.622 25.5121 203.573 25.5382 203.525 25.5644L203.216 25.731C202.535 26.1036 201.867 26.499 201.21 26.9173C201.156 26.95 201.104 26.9826 201.049 27.0186C200.991 27.0578 200.93 27.097 200.872 27.1362C200.836 27.1558 200.801 27.182 200.766 27.2048C200.666 27.2669 200.569 27.3323 200.472 27.4009C200.279 27.5284 200.085 27.6591 199.895 27.7931C199.698 27.927 199.505 28.0676 199.312 28.2081L199.118 28.3486L199.154 28.5904C199.186 28.7898 199.215 28.9891 199.25 29.1852C199.283 29.3812 199.315 29.574 199.35 29.7668C199.405 30.0904 199.466 30.4106 199.528 30.7211C199.57 30.9269 199.608 31.1295 199.653 31.3289C199.695 31.5347 199.74 31.7406 199.789 31.9465C199.882 32.3713 199.982 32.7831 200.089 33.1883C200.14 33.3909 200.195 33.5935 200.253 33.7928C200.285 33.9137 200.317 34.0347 200.353 34.1523C200.379 34.234 200.404 34.3157 200.43 34.3974C200.437 34.4235 200.443 34.4529 200.453 34.4824C200.46 34.51 200.469 34.5373 200.479 34.564C200.514 34.685 200.55 34.8026 200.585 34.917C200.604 34.9791 200.624 35.0412 200.646 35.1C200.691 35.2405 200.74 35.3843 200.788 35.5215C200.84 35.6784 200.894 35.8352 200.949 35.9888C200.962 36.028 200.975 36.064 200.988 36.1032C200.998 36.1326 201.007 36.162 201.02 36.1914C201.033 36.2241 201.046 36.2601 201.059 36.2927C201.114 36.4398 201.168 36.5901 201.227 36.7372C201.246 36.7895 201.265 36.845 201.288 36.8973C201.81 38.2286 202.452 39.5084 203.206 40.7207C202.371 39.9952 201.567 39.2262 200.795 38.4136C199.602 37.1571 198.503 35.8125 197.506 34.3909C197.426 34.2797 197.345 34.1654 197.271 34.051C197.119 33.8321 196.971 33.6131 196.826 33.3909C196.671 33.1621 196.523 32.9236 196.378 32.6883C196.281 32.5314 196.185 32.3713 196.091 32.2145C195.998 32.0641 195.911 31.9171 195.827 31.7668L195.575 31.3289H195.572V31.3321L195.217 31.6851C195.076 31.8256 194.934 31.9661 194.795 32.1066C190.462 36.5258 187.324 42.0006 185.682 48.0047L185.633 48.1844L185.585 48.3707C185.491 48.704 185.398 49.0275 185.298 49.3576V49.3609C185.201 49.6877 185.098 50.0144 184.988 50.3347C184.889 50.6386 184.785 50.9392 184.676 51.2399C184.64 51.3412 184.602 51.4425 184.56 51.5438C184.492 51.7399 184.418 51.9327 184.344 52.1287C184.308 52.217 184.273 52.3085 184.237 52.3967C184.15 52.6124 184.063 52.8281 183.976 53.0405C183.963 53.0731 183.947 53.1091 183.931 53.1418C183.905 53.2071 183.876 53.2725 183.851 53.3346C183.783 53.4914 183.712 53.6516 183.644 53.8084C183.596 53.9097 183.551 54.0143 183.506 54.1156C183.486 54.1613 183.464 54.2071 183.444 54.2528C183.325 54.5143 183.203 54.7724 183.074 55.0273C182.929 55.328 182.78 55.6286 182.622 55.9227C182.484 56.1972 182.339 56.4652 182.187 56.7332C181.926 57.207 181.652 57.6776 181.368 58.1351C181.259 58.3115 181.149 58.488 181.036 58.6645C181.01 58.7069 180.985 58.7494 180.959 58.7886C180.865 58.9422 180.769 59.0893 180.669 59.2396C180.601 59.3409 180.533 59.4422 180.466 59.5402C180.353 59.7167 180.233 59.8866 180.111 60.0533C180.079 60.1056 180.043 60.1546 180.008 60.2036C179.827 60.4585 179.647 60.7069 179.463 60.9552C179.457 60.9585 179.457 60.9618 179.453 60.965C179.447 60.965 179.447 60.9683 179.444 60.9716C179.363 61.0794 179.282 61.1872 179.199 61.2918C179.089 61.4454 178.97 61.5957 178.85 61.7428C178.657 61.9911 178.454 62.2428 178.248 62.4879C178.241 62.4944 178.238 62.5009 178.232 62.5042C177.163 63.7764 176.006 64.9689 174.769 66.0727C174.747 66.0923 174.731 66.1119 174.708 66.1282C174.534 66.2818 174.36 66.4354 174.179 66.5857C174.105 66.6478 174.031 66.7099 173.957 66.772C173.834 66.8766 173.709 66.9811 173.586 67.0759C173.572 67.0909 173.555 67.1041 173.538 67.1151C173.428 67.2066 173.322 67.2916 173.212 67.3766C173.08 67.4844 172.948 67.5857 172.812 67.687C172.174 68.1772 171.519 68.6401 170.846 69.0758C170.746 69.1445 170.64 69.2131 170.536 69.2785C170.475 69.3177 170.414 69.3569 170.356 69.3896C170.111 69.5432 169.866 69.6935 169.621 69.8373C169.376 69.9843 169.124 70.1248 168.876 70.2621C168.344 70.5562 167.819 70.8634 167.306 71.1836C167.048 71.347 166.79 71.5104 166.536 71.6771C165.523 72.3437 164.549 73.0572 163.612 73.8175C162.675 74.5783 161.777 75.3865 160.92 76.239C160.814 76.3435 160.707 76.4514 160.601 76.5625C160.388 76.7749 160.182 76.9906 159.985 77.2063C159.669 77.5363 159.366 77.8762 159.066 78.2193C157.485 80.0376 156.086 82.0101 154.888 84.108C154.287 85.1555 153.74 86.2342 153.251 87.3399C152.88 88.1666 152.541 89.013 152.235 89.8692C152.032 90.4411 151.842 91.0184 151.665 91.6011C151.578 91.892 151.494 92.1861 151.413 92.4802C151.139 93.4769 150.91 94.4834 150.723 95.4931C150.572 96.3036 150.449 97.1151 150.356 97.9277C150.307 98.3362 150.269 98.7447 150.233 99.1499C150.15 100.146 150.108 101.143 150.106 102.141C150.1 105.134 150.459 108.117 151.175 111.022C151.333 111.662 151.508 112.3 151.7 112.934C151.797 113.251 151.9 113.564 152.003 113.878C152.264 114.662 152.553 115.439 152.87 116.208C153.06 116.669 153.26 117.126 153.47 117.581C154.802 120.468 156.501 123.167 158.525 125.606C158.857 126.008 159.2 126.404 159.553 126.793C159.556 126.793 159.553 126.796 159.553 126.796C160.43 127.766 161.359 128.687 162.335 129.554H162.338C162.728 129.904 163.125 130.242 163.528 130.57C163.531 130.567 163.531 130.57 163.531 130.57C163.937 130.904 164.347 131.224 164.766 131.534C164.975 131.688 165.188 131.841 165.404 131.995C165.827 132.299 166.257 132.592 166.697 132.874H166.7C167.139 133.162 167.583 133.436 168.035 133.698C168.941 134.224 169.869 134.717 170.823 135.165L170.985 135.24L171.149 135.165C172.679 134.467 174.256 133.881 175.869 133.41C176.223 133.305 176.581 133.211 176.936 133.119C177.832 132.894 178.734 132.704 179.644 132.551C178.758 133.001 177.903 133.511 177.084 134.077C176.449 134.511 175.823 134.985 175.195 135.508C174.985 135.681 174.776 135.861 174.566 136.044L174.044 136.501L174.698 136.72C174.937 136.799 175.175 136.877 175.414 136.949C175.74 137.054 176.062 137.148 176.378 137.237C177.068 137.433 177.762 137.606 178.46 137.756C178.631 137.792 178.799 137.828 178.97 137.864C179.302 137.93 179.637 137.995 179.972 138.054C179.986 138.057 180 138.059 180.014 138.06C180.362 138.119 180.714 138.175 181.062 138.224C181.71 138.318 182.358 138.394 183.006 138.449C183.077 138.459 183.148 138.462 183.222 138.465C183.38 138.478 183.535 138.492 183.693 138.501C184.041 138.524 184.392 138.541 184.743 138.554C184.769 138.554 184.792 138.557 184.818 138.557C184.995 138.563 185.172 138.57 185.35 138.573C185.35 138.573 185.35 138.577 185.353 138.573C185.53 138.577 185.707 138.58 185.885 138.58H186.865C187.048 138.58 187.232 138.583 187.419 138.583C187.677 138.583 187.938 138.586 188.196 138.59C188.264 138.59 188.335 138.593 188.406 138.593C188.818 138.599 189.231 138.609 189.644 138.619C189.669 138.619 189.695 138.622 189.721 138.622C190.134 138.635 190.546 138.648 190.959 138.668C191.049 138.671 191.139 138.675 191.233 138.681C191.629 138.697 192.026 138.717 192.422 138.74C192.535 138.746 192.651 138.756 192.767 138.763C193.067 138.779 193.37 138.799 193.67 138.822C193.847 138.831 194.021 138.844 194.199 138.861C194.914 138.916 195.627 138.978 196.343 139.05C196.581 139.07 196.82 139.096 197.058 139.122C197.697 139.191 198.337 139.266 198.98 139.348C199.266 139.38 199.553 139.42 199.84 139.459C199.873 139.462 199.905 139.465 199.937 139.472C200.292 139.521 200.643 139.57 200.998 139.622C201.23 139.655 201.462 139.691 201.694 139.727C201.933 139.763 202.171 139.799 202.41 139.841C202.539 139.861 202.668 139.884 202.8 139.907C203.109 139.956 203.422 140.008 203.735 140.067C203.763 140.069 203.791 140.074 203.818 140.08C204.483 140.197 205.15 140.322 205.814 140.456C206.204 140.531 206.591 140.609 206.978 140.691C207.281 140.753 207.584 140.818 207.887 140.884C207.938 140.893 207.99 140.906 208.042 140.92C208.053 140.923 208.065 140.925 208.077 140.926C208.535 141.027 208.996 141.132 209.454 141.243C211.043 141.616 212.63 142.03 214.215 142.485C214.579 142.586 214.944 142.694 215.308 142.802C215.463 142.848 215.614 142.893 215.766 142.939C216.082 143.034 216.394 143.129 216.71 143.23C216.987 143.315 217.268 143.403 217.545 143.495C217.719 143.55 217.893 143.606 218.067 143.665C218.338 143.75 218.609 143.838 218.877 143.933C219.105 144.004 219.331 144.08 219.557 144.161C219.879 144.269 220.205 144.38 220.527 144.498C220.621 144.531 220.717 144.563 220.811 144.599C221.204 144.736 221.597 144.877 221.991 145.024C222.374 145.165 222.758 145.308 223.138 145.452C223.403 145.553 223.667 145.651 223.928 145.756C224.222 145.87 224.515 145.985 224.805 146.102C225.224 146.269 225.646 146.439 226.066 146.612C226.452 146.769 226.836 146.929 227.223 147.096C227.294 147.125 227.368 147.155 227.439 147.187C227.774 147.328 228.109 147.475 228.441 147.622C228.657 147.713 228.87 147.808 229.083 147.903C230.011 148.315 230.939 148.741 231.865 149.181H231.868C232.449 149.458 233.039 149.723 233.632 149.975C233.77 150.034 233.909 150.092 234.051 150.148C234.286 150.249 234.525 150.344 234.763 150.442C234.918 150.504 235.073 150.566 235.231 150.625C235.46 150.717 235.692 150.805 235.924 150.89C236.169 150.981 236.411 151.073 236.659 151.158C236.746 151.19 236.833 151.22 236.923 151.253C237.21 151.351 237.497 151.449 237.787 151.543C237.816 151.553 237.845 151.563 237.877 151.573C238.18 151.671 238.483 151.769 238.79 151.86C238.814 151.869 238.839 151.877 238.864 151.883C239.193 151.985 239.528 152.083 239.86 152.177C240.35 152.315 240.843 152.445 241.336 152.566C241.427 152.589 241.517 152.612 241.607 152.632C241.872 152.697 242.133 152.759 242.397 152.818C242.678 152.883 242.961 152.942 243.242 153.001C243.525 153.06 243.809 153.118 244.09 153.171C244.241 153.2 244.393 153.23 244.541 153.256L244.937 153.324C245.211 153.373 245.485 153.416 245.763 153.462C245.77 153.461 245.778 153.462 245.785 153.465C246.098 153.514 246.407 153.56 246.72 153.599C247.02 153.641 247.32 153.677 247.62 153.713C247.681 153.72 247.745 153.726 247.81 153.733C248.058 153.762 248.306 153.792 248.554 153.815C248.625 153.821 248.696 153.828 248.767 153.834C249.012 153.857 249.257 153.88 249.502 153.896C249.551 153.903 249.601 153.906 249.65 153.906C249.87 153.926 250.089 153.942 250.308 153.952C250.463 153.965 250.614 153.971 250.769 153.981C250.85 153.984 250.927 153.988 251.008 153.991C251.22 154.004 251.433 154.011 251.649 154.017C251.91 154.027 252.171 154.033 252.429 154.04C252.742 154.047 253.058 154.05 253.371 154.05H253.377C253.683 154.05 253.993 154.047 254.299 154.04H254.415L254.754 154.03C254.928 154.027 255.102 154.02 255.273 154.014C255.602 154.001 255.927 153.984 256.253 153.965C256.382 153.958 256.514 153.949 256.643 153.942C256.701 153.939 256.762 153.932 256.82 153.929C257.023 153.916 257.223 153.903 257.426 153.886C257.636 153.87 257.849 153.85 258.058 153.828C258.329 153.801 258.6 153.772 258.87 153.743C259.083 153.72 259.296 153.694 259.506 153.667C259.534 153.665 259.562 153.661 259.589 153.654C259.792 153.632 259.996 153.605 260.195 153.576C260.434 153.543 260.669 153.507 260.905 153.471C260.93 153.468 260.953 153.465 260.979 153.462C261.385 153.396 261.794 153.331 262.204 153.256C262.633 153.177 263.061 153.092 263.487 153.004C263.645 152.971 263.8 152.936 263.958 152.903C264.045 152.883 264.135 152.867 264.219 152.847C264.351 152.818 264.48 152.788 264.609 152.756C264.631 152.752 264.657 152.746 264.68 152.743C264.86 152.703 265.038 152.658 265.218 152.612C265.579 152.524 265.934 152.432 266.288 152.334C266.446 152.295 266.604 152.253 266.756 152.21C266.801 152.197 266.846 152.184 266.888 152.171C267.542 151.985 268.191 151.787 268.835 151.579C269.119 151.488 269.399 151.393 269.68 151.292C270.283 151.083 270.88 150.863 271.472 150.632C271.63 150.573 271.788 150.507 271.946 150.445C272.178 150.351 272.41 150.256 272.639 150.161C272.845 150.073 273.052 149.985 273.261 149.893C273.364 149.851 273.468 149.805 273.571 149.759C273.88 149.622 274.19 149.481 274.496 149.341C274.702 149.243 274.905 149.148 275.109 149.05C275.431 148.893 275.75 148.733 276.069 148.573C276.15 148.53 276.227 148.488 276.305 148.449C276.508 148.344 276.711 148.236 276.917 148.132C277.243 147.955 277.568 147.779 277.891 147.596C278 147.537 278.107 147.475 278.216 147.413C278.571 147.21 278.922 147.004 279.27 146.795C280.041 146.328 280.801 145.84 281.55 145.331C281.737 145.207 281.924 145.076 282.107 144.949C282.455 144.707 282.797 144.459 283.139 144.21C283.174 144.184 283.207 144.158 283.242 144.135C283.413 144.008 283.584 143.88 283.755 143.75C284.109 143.478 284.461 143.204 284.812 142.923C284.818 142.92 284.828 142.91 284.838 142.903C284.996 142.776 285.154 142.648 285.308 142.521C285.789 142.125 286.263 141.724 286.727 141.308C286.956 141.109 287.181 140.903 287.404 140.697C287.572 140.544 287.739 140.39 287.904 140.233C288.236 139.916 288.561 139.603 288.884 139.282C289.045 139.126 289.203 138.962 289.364 138.799C289.522 138.635 289.683 138.472 289.841 138.305C289.896 138.25 289.951 138.191 290.005 138.132C290.167 137.959 290.328 137.782 290.489 137.609C290.628 137.459 290.763 137.302 290.902 137.145C291.134 136.884 291.369 136.622 291.598 136.358C291.61 136.343 291.623 136.329 291.637 136.315C291.65 136.299 291.662 136.286 291.672 136.273H291.669C296.355 130.78 299.836 124.341 301.883 117.382C303.93 110.423 304.496 103.103 303.543 95.9058C302.59 88.7086 300.14 81.7986 296.355 75.6332C292.571 69.4677 287.537 64.1873 281.588 60.1415Z" fill="#5185E4"/>
<g opacity="0.15">
<path d="M216.337 21.5783C216.98 23.9183 217.946 26.1539 219.208 28.2186C217.096 26.3787 215.208 24.2888 213.585 21.9936C214.497 21.8188 215.414 21.6804 216.337 21.5783Z" fill="black"/>
<path d="M184.88 57.7656C182.494 59.0856 180.263 60.6752 178.23 62.504C181.663 58.3891 184.172 53.5666 185.583 48.3708C185.6 48.3084 185.618 48.2455 185.634 48.183L185.682 48.0062C187.378 41.8049 190.668 36.1715 195.216 31.6821L195.574 31.3289L195.826 31.7654C197.22 34.1685 198.888 36.3969 200.797 38.4045C197.873 46.7682 192.183 53.7292 184.88 57.7656Z" fill="black"/>
<path d="M201.685 35.5065L201.637 35.6834C201.621 35.7459 201.603 35.8088 201.586 35.8712C201.492 36.215 201.392 36.5563 201.289 36.8961C200.269 34.2186 199.553 31.4321 199.154 28.5905L199.117 28.3494L199.312 28.2077C201.765 26.4209 204.43 24.9527 207.243 23.8375C204.717 27.359 202.835 31.3113 201.685 35.5065Z" fill="black"/>
<path d="M168.877 70.2651C170.989 69.0935 172.965 67.6873 174.77 66.0723C171.165 70.3266 168.581 75.3692 167.221 80.8051C165.86 86.2409 165.76 91.9223 166.927 97.4041C168.095 102.886 170.499 108.019 173.951 112.402C177.403 116.784 181.81 120.296 186.825 122.664L186.988 122.74L187.151 122.666C189.859 121.425 192.716 120.546 195.648 120.05C193.818 120.995 192.112 122.169 190.57 123.545L190.048 124.002L190.703 124.221C191.267 124.41 191.832 124.584 192.381 124.739C195.608 125.65 198.943 126.102 202.292 126.083C217.509 125.984 232.844 129.55 247.87 136.682C250.447 137.903 253.12 138.905 255.861 139.676C267.807 143.047 280.56 141.834 291.678 136.27C285.41 143.618 277.213 149.014 268.04 151.829C258.868 154.645 249.095 154.765 239.858 152.175C237.117 151.404 234.444 150.403 231.867 149.181C216.841 142.05 201.506 138.484 186.289 138.583C182.94 138.602 179.605 138.149 176.378 137.238C175.829 137.084 175.264 136.91 174.7 136.72L174.045 136.501L174.567 136.044C176.109 134.669 177.815 133.495 179.645 132.55C176.713 133.046 173.856 133.925 171.147 135.165L170.985 135.24L170.822 135.164C164.799 132.322 159.674 127.84 156.018 122.217C152.362 116.595 150.319 110.053 150.117 103.322C149.916 96.5909 151.563 89.9355 154.876 84.0984C158.188 78.2613 163.036 73.4721 168.877 70.2651Z" fill="black"/>
</g>
</g>
<defs>
<clipPath id="clip0_1_19">
<rect width="304" height="260" fill="white"/>
</clipPath>
</defs>
</svg>
